<?xml version="1.0" encoding="UTF-8"?>
<svg width="20px" height="20px" viewBox="0 0 20 20" version="1.1" xmlns="http://www.w3.org/2000/svg" xmlns:xlink="http://www.w3.org/1999/xlink">
    <!-- Generator: Sketch 52.6 (67491) - http://www.bohemiancoding.com/sketch -->
    <title>ic_github</title>
    <desc>Created with Sketch.</desc>
    <g id="ic_github" stroke="none" stroke-width="1" fill="none" fill-rule="evenodd">
        <g transform="translate(1.000000, 1.000000)">
            <ellipse id="Oval" fill="#FFFFFF" fill-rule="nonzero" cx="9" cy="8.76315789" rx="9" ry="8.76315789"></ellipse>
            <path d="M8.98245616,0 C4.02192982,0 0,3.91608957 0,8.74607573 C0,12.6109187 2.57347368,15.8885619 6.1430877,17.0448033 C6.59210528,17.1248846 6.75603507,16.8547641 6.75603507,16.6241547 C6.75603507,16.4159571 6.74780703,15.7262812 6.74342105,14.996018 C4.24561403,15.5244894 3.71764912,13.9646815 3.71764912,13.9646815 C3.30866667,12.9546976 2.72038597,12.6856533 2.72038597,12.6856533 C1.90405263,12.1432941 2.78231579,12.1539705 2.78231579,12.1539705 C3.68417544,12.2148172 4.15898245,13.0550554 4.15898245,13.0550554 C4.96052631,14.3917359 6.26205264,14.0052516 6.77301755,13.781048 C6.85466668,13.2173361 7.08712281,12.8308518 7.34319298,12.613054 C5.34922806,12.3920619 3.25164912,11.6415051 3.25164912,8.29018651 C3.25164912,7.33464356 3.60198246,6.55528626 4.17543859,5.94299261 C4.08387719,5.72092427 3.77466667,4.83104524 4.26424562,3.62729824 C4.26424562,3.62729824 5.01754386,3.39241828 6.7346316,4.52411265 C7.45063157,4.32927331 8.21873686,4.23318606 8.98243858,4.22997461 C9.74559647,4.23318606 10.5142281,4.33033241 11.2313509,4.52517174 C12.9451754,3.39241828 13.6995614,3.62835734 13.6995614,3.62835734 C14.1907895,4.83318049 13.881579,5.72198337 13.7894737,5.94299261 C14.3651228,6.55528626 14.7127193,7.33466068 14.7127193,8.29018651 C14.7127193,11.6500462 12.6118421,12.3899095 10.6107544,12.6066482 C10.9342281,12.8778278 11.2204035,13.4095106 11.2204035,14.2251847 C11.2204035,15.3942548 11.2083333,16.3369691 11.2083333,16.6252308 C11.2083333,16.8579755 11.3717017,17.1302142 11.8267544,17.0448033 C15.3936491,15.8864266 17.9649123,12.6087835 17.9649123,8.74607573 C17.9649123,3.91608957 13.9429825,0 8.98245616,0 Z" id="Shape" fill="#3C4653"></path>
        </g>
    </g>
</svg>