<svg width="26px" height="25px" viewBox="0 0 26 25" version="1.1" xmlns="http://www.w3.org/2000/svg" xmlns:xlink="http://www.w3.org/1999/xlink">
    <g id="Dapis" stroke="none" stroke-width="1" fill="none" fill-rule="evenodd">
        <g id="dapis-option-3" transform="translate(-1143.000000, -3870.000000)" fill="#FFFFFF">
            <g id="Group-225" transform="translate(115.000000, 3850.980000)">
                <path d="M1040.8164,19.1446 C1033.9294,19.1446 1028.3444,24.7286 1028.3444,31.6176 C1028.3444,37.1266 1031.9184,41.8016 1036.8754,43.4516 C1037.4984,43.5656 1037.7254,43.1806 1037.7254,42.8496 C1037.7254,42.5536 1037.7144,41.7696 1037.7094,40.7286 C1034.2404,41.4826 1033.5074,39.0566 1033.5074,39.0566 C1032.9404,37.6166 1032.1234,37.2326 1032.1234,37.2326 C1030.9904,36.4586 1032.2094,36.4746 1032.2094,36.4746 C1033.4604,36.5626 1034.1194,37.7596 1034.1194,37.7596 C1035.2314,39.6656 1037.0384,39.1156 1037.7494,38.7956 C1037.8624,37.9906 1038.1844,37.4406 1038.5414,37.1286 C1035.7714,36.8136 1032.8594,35.7446 1032.8594,30.9646 C1032.8594,29.6036 1033.3454,28.4906 1034.1434,27.6186 C1034.0154,27.3026 1033.5874,26.0346 1034.2654,24.3176 C1034.2654,24.3176 1035.3124,23.9816 1037.6954,25.5956 C1038.6904,25.3196 1039.7564,25.1806 1040.8174,25.1756 C1041.8774,25.1806 1042.9434,25.3196 1043.9404,25.5956 C1046.3214,23.9816 1047.3664,24.3176 1047.3664,24.3176 C1048.0464,26.0346 1047.6194,27.3026 1047.4904,27.6186 C1048.2904,28.4906 1048.7724,29.6036 1048.7724,30.9646 C1048.7724,35.7556 1045.8564,36.8106 1043.0784,37.1196 C1043.5254,37.5036 1043.9244,38.2656 1043.9244,39.4286 C1043.9244,41.0956 1043.9094,42.4416 1043.9094,42.8496 C1043.9094,43.1836 1044.1334,43.5716 1044.7664,43.4496 C1049.7184,41.7966 1053.2894,37.1256 1053.2894,31.6176 C1053.2894,24.7286 1047.7044,19.1446 1040.8164,19.1446" id="Fill-211"></path>
            </g>
        </g>
    </g>
</svg>
