<svg width="27px" height="18px" viewBox="0 0 27 18" version="1.1" xmlns="http://www.w3.org/2000/svg" xmlns:xlink="http://www.w3.org/1999/xlink">
    <g id="Dapis" stroke="none" stroke-width="1" fill="none" fill-rule="evenodd">
        <g id="dapis-option-3" transform="translate(-969.000000, -3873.000000)" fill="#FFFFFF">
            <g id="Group-225" transform="translate(115.000000, 3850.980000)">
                <path d="M877.1777,34.9942 L877.1837,35.0012 C877.5497,35.3752 877.5487,35.9742 877.1757,36.3482 C876.8057,36.7172 876.2047,36.7202 875.8327,36.3512 L875.8257,36.3462 L871.6767,32.1962 L868.2207,35.6522 C868.2187,35.6552 868.2177,35.6572 868.2157,35.6582 C868.0297,35.8452 867.7847,35.9382 867.5407,35.9382 C867.2967,35.9382 867.0527,35.8452 866.8657,35.6582 C866.8647,35.6552 866.8637,35.6542 866.8617,35.6522 L863.4057,32.1962 L859.2557,36.3432 L859.2497,36.3482 C858.8767,36.7172 858.2777,36.7152 857.9067,36.3442 C857.5357,35.9732 857.5327,35.3732 857.9017,35.0012 L862.0557,30.8472 L857.9067,26.6972 L857.9017,26.6902 C857.5327,26.3182 857.5347,25.7172 857.9067,25.3482 C858.2777,24.9772 858.8767,24.9742 859.2497,25.3432 L859.2557,25.3482 L867.5427,33.6342 L875.8367,25.3432 C876.2097,24.9742 876.8097,24.9762 877.1807,25.3482 C877.5497,25.7182 877.5537,26.3182 877.1857,26.6902 L877.1797,26.6972 L873.0297,30.8472 L877.1777,34.9942 Z M879.9397,22.2352 L855.1457,22.2352 C854.1987,22.2352 854.1837,23.1822 854.1837,23.1822 L854.1837,38.5112 C854.1837,38.5112 854.1987,39.4572 855.1457,39.4572 L879.9397,39.4572 C880.8857,39.4572 880.9017,38.5112 880.9017,38.5112 L880.9017,23.1822 C880.9017,23.1822 880.8857,22.2352 879.9397,22.2352 Z" id="Fill-215"></path>
            </g>
        </g>
    </g>
</svg>
