<?xml version="1.0" encoding="UTF-8"?>
<svg width="20px" height="20px" viewBox="0 0 20 20" version="1.1" xmlns="http://www.w3.org/2000/svg" xmlns:xlink="http://www.w3.org/1999/xlink">
    <!-- Generator: Sketch 52.6 (67491) - http://www.bohemiancoding.com/sketch -->
    <title>ic_medium</title>
    <desc>Created with Sketch.</desc>
    <g id="ic_medium" stroke="none" stroke-width="1" fill="none" fill-rule="evenodd">
        <g transform="translate(1.000000, 3.000000)" fill="#3C4653" id="Fill-1">
            <path d="M2.22135949,2.93757176 C2.24325872,2.71492774 2.16076712,2.49491447 1.99954575,2.34496207 L0.35616254,0.304750916 L0.35616254,0 L5.45868468,0 L9.40269688,8.91434506 L12.8701656,0 L17.7343488,0 L17.7343488,0.304750916 L16.3293045,1.69309141 C16.2081198,1.78835203 16.1480648,1.94467361 16.1731885,2.09947212 L16.1731885,12.3005279 C16.1480648,12.4553264 16.2081198,12.611648 16.3293045,12.7067701 L17.7015671,14.0951106 L17.7015671,14.4 L10.7995458,14.4 L10.7995458,14.0951106 L12.2209809,12.6729858 C12.360706,12.5289872 12.360706,12.4866184 12.360706,12.2664667 L12.360706,4.02116133 L8.4084984,14.3660773 L7.8744526,14.3660773 L3.27306025,4.02116133 L3.27306025,10.9544177 C3.23463582,11.2458765 3.32868162,11.5394121 3.52779002,11.7501486 L5.37646176,14.0611879 L5.37646176,14.3660773 L0.1343488,14.3660773 L0.1343488,14.0611879 L1.98315491,11.7501486 C2.18078544,11.5391352 2.2691885,11.2436611 2.22135949,10.9544177 L2.22135949,2.93757176 Z"></path>
        </g>
    </g>
</svg>