<svg width="22px" height="22px" viewBox="0 0 22 22" version="1.1" xmlns="http://www.w3.org/2000/svg" xmlns:xlink="http://www.w3.org/1999/xlink">
    <g id="Dapis" stroke="none" stroke-width="1" fill="none" fill-rule="evenodd">
        <g id="dapis-option-3" transform="translate(-1029.000000, -3871.000000)" fill="#FFFFFF">
            <g id="Group-225" transform="translate(115.000000, 3850.980000)">
                <path d="M934.5625,25.9015 L933.4835,26.9805 L929.1665,22.6635 L930.2495,21.5795 C931.4395,20.3865 933.3715,20.3865 934.5625,21.5795 C935.7525,22.7735 935.7525,24.7085 934.5625,25.9015 Z M921.2305,39.2455 C921.1665,39.3085 921.0865,39.3745 921.0025,39.4395 C920.9545,38.6855 920.6365,37.9465 920.0435,37.3705 L919.9505,37.2785 L918.8715,36.2305 L918.8705,36.2285 L918.4715,35.8405 C918.0125,35.3945 917.4535,35.1145 916.8665,34.9845 C916.8825,34.9665 916.8995,34.9425 916.9165,34.9255 L928.1085,23.7245 L929.6815,25.2985 L930.8045,26.4235 L932.4235,28.0435 L921.2305,39.2455 Z M914.5745,41.5905 C914.2225,41.2405 915.0845,38.2225 916.0415,36.2895 C916.7165,36.4635 917.3655,36.7925 917.8995,37.3135 L918.5295,37.9245 C919.1915,38.5695 919.5815,39.3755 919.6975,40.2005 C917.7595,41.1195 914.8955,41.9155 914.5745,41.5905 Z" id="Fill-213"></path>
            </g>
        </g>
    </g>
</svg>
