<svg width="27px" height="22px" viewBox="0 0 27 22" version="1.1" xmlns="http://www.w3.org/2000/svg" xmlns:xlink="http://www.w3.org/1999/xlink">
    <g id="Dapis" stroke="none" stroke-width="1" fill="none" fill-rule="evenodd">
        <g id="dapis-option-3" transform="translate(-1083.000000, -3871.000000)" fill="#FFFFFF">
            <g id="Group-225" transform="translate(115.000000, 3850.980000)">
                <path d="M991.4766,25.6329 C991.4876,25.8579 991.4926,26.0839 991.4926,26.3119 C991.4926,33.2419 986.2166,41.2349 976.5696,41.2349 C973.6066,41.2349 970.8506,40.3649 968.5296,38.8779 C968.9416,38.9249 969.3576,38.9499 969.7806,38.9499 C972.2396,38.9499 974.4986,38.1119 976.2926,36.7059 C973.9986,36.6619 972.0616,35.1459 971.3956,33.0629 C971.7146,33.1239 972.0426,33.1579 972.3816,33.1579 C972.8606,33.1579 973.3236,33.0929 973.7616,32.9729 C971.3656,32.4909 969.5556,30.3709 969.5556,27.8299 L969.5556,27.7639 C970.2636,28.1569 971.0726,28.3939 971.9316,28.4199 C970.5246,27.4809 969.5996,25.8749 969.5996,24.0559 C969.5996,23.0939 969.8586,22.1939 970.3096,21.4179 C972.8946,24.5919 976.7606,26.6799 981.1196,26.8989 C981.0306,26.5149 980.9836,26.1139 980.9836,25.7029 C980.9836,22.8069 983.3306,20.4589 986.2286,20.4589 C987.7366,20.4589 989.0996,21.0959 990.0566,22.1139 C991.2496,21.8799 992.3726,21.4439 993.3876,20.8419 C992.9946,22.0669 992.1636,23.0949 991.0806,23.7429 C992.1426,23.6169 993.1536,23.3349 994.0926,22.9179 C993.3906,23.9699 992.5006,24.8939 991.4766,25.6329" id="Fill-209"></path>
            </g>
        </g>
    </g>
</svg>
