<?xml version="1.0" encoding="UTF-8"?>
<svg width="20px" height="20px" viewBox="0 0 20 20" version="1.1" xmlns="http://www.w3.org/2000/svg" xmlns:xlink="http://www.w3.org/1999/xlink">
    <!-- Generator: Sketch 52.6 (67491) - http://www.bohemiancoding.com/sketch -->
    <title>ic_twitter</title>
    <desc>Created with Sketch.</desc>
    <g id="ic_twitter" stroke="none" stroke-width="1" fill="none" fill-rule="evenodd">
        <g transform="translate(1.000000, 2.000000)" fill="#3C4653" id="twitter">
            <path d="M18,1.81128462 C17.330625,2.11846154 16.617375,2.32206923 15.87375,2.42093077 C16.63875,1.9431 17.222625,1.19222308 17.497125,0.287169231 C16.783875,0.732046154 15.996375,1.04628462 15.157125,1.22164615 C14.479875,0.467238462 13.514625,0 12.461625,0 C10.418625,0 8.773875,1.73478462 8.773875,3.86148462 C8.773875,4.16748462 8.798625,4.4617154 8.859375,4.74182308 C5.7915,4.58529232 3.076875,3.04705385 1.25325,0.7038 C0.934875,1.28166923 0.748125,1.9431 0.748125,2.65513846 C0.748125,3.99212308 1.40625,5.1772846 2.38725,5.86343076 C1.794375,5.85166151 1.21275,5.67159232 0.72,5.38795383 C0.72,5.39972308 0.72,5.41502308 0.72,5.43032308 C0.72,7.30633849 1.999125,8.8645846 3.6765,9.22354617 C3.376125,9.30946151 3.04875,9.35065383 2.709,9.35065383 C2.47275,9.35065383 2.23425,9.33653076 2.010375,9.28474617 C2.4885,10.8135692 3.84525,11.9375308 5.4585,11.9740154 C4.203,13.0014692 2.608875,13.6205308 0.883125,13.6205308 C0.5805,13.6205308 0.29025,13.6064077 0,13.5675692 C1.634625,14.6703462 3.571875,15.3 5.661,15.3 C12.4515,15.3 16.164,9.4153846 16.164,4.3146 C16.164,4.14394615 16.158375,3.97917692 16.1505,3.81558462 C16.882875,3.27184615 17.49825,2.59276154 18,1.81128462 Z"></path>
        </g>
    </g>
</svg>