<?xml version="1.0" encoding="UTF-8"?>
<svg width="85px" height="18px" viewBox="0 0 85 18" version="1.1" xmlns="http://www.w3.org/2000/svg" xmlns:xlink="http://www.w3.org/1999/xlink">
    <!-- Generator: Sketch 52.6 (67491) - http://www.bohemiancoding.com/sketch -->
    <title>zeppelin_logo</title>
    <desc>Created with Sketch.</desc>
    <g id="Symbols" stroke="none" stroke-width="1" fill="none" fill-rule="evenodd">
        <g id="footer" transform="translate(-313.000000, -29.000000)" fill="#3C4653">
            <g id="Group-9" transform="translate(240.000000, 29.000000)">
                <g id="Group-7">
                    <g id="zeppelin_logo" transform="translate(73.000000, 0.000000)">
                        <polygon id="Shape" points="0.351599147 0 15.571855 0 13.3770789 3.7116 0.351599147 3.7116"></polygon>
                        <path d="M7.67899787,15.3 L5.48603412,18 L15.5156716,18 L15.5156716,14.2686 L10.2688699,14.2686 C9.30434845,14.2698241 8.37717176,14.6390663 7.67899787,15.3 Z" id="_Path_"></path>
                        <path d="M13.1360341,4.1184 L9.51130064,4.6584 C8.32858021,4.87223295 7.29797298,5.58637022 6.68763326,6.615 L0,18 L4.97132196,18 L13.1360341,4.1184 Z" id="_Path_2"></path>
                        <polygon id="Path" points="22.3682303 12.8772 22.3682303 12.015 26.8991471 5.8734 22.3682303 5.8734 22.3682303 5.0112 28.0010661 5.0112 28.0010661 5.8734 23.5027719 12.015 27.9992537 12.015 27.9992537 12.8772"></polygon>
                        <path d="M33.6792111,13.113 C32.9595894,13.1347845 32.2537317,12.9140041 31.6765458,12.4866 C31.1521516,12.0985008 30.7523782,11.5676478 30.525693,10.9584 C30.2989088,10.3228686 30.1866384,9.65262385 30.1940299,8.9784 C30.1940299,7.7784 30.4882374,6.7782 31.0766525,5.9778 C31.6650675,5.1774 32.5277541,4.7778 33.6647122,4.779 C36.0316631,4.779 37.2151386,6.2154 37.2151386,9.0882 L37.2151386,9.1674 L31.2017058,9.1674 C31.2222459,10.0866 31.4355011,10.8306 31.8414712,11.3994 C32.2474414,11.9682 32.8968728,12.2526 33.7897655,12.2526 C34.3353057,12.2633217 34.8687363,12.092217 35.3049041,11.7666 C35.7185743,11.4701375 36.0010092,11.026484 36.0932836,10.5282 L37.0719616,10.5282 C36.9508408,11.2835198 36.5517103,11.9672898 35.951919,12.447 C35.3731699,12.891 34.6156006,13.113 33.6792111,13.113 Z M31.2343284,8.3646 L36.203838,8.3646 C36.203838,7.5186 35.9905828,6.8526 35.5640725,6.3666 C35.1375622,5.8806 34.5092751,5.6406 33.6792111,5.6466 C32.9011016,5.6466 32.2969794,5.9106 31.8668443,6.4386 C31.4371638,6.98814711 31.2135254,7.66912207 31.2343284,8.3646 Z" id="Shape" fill-rule="nonzero"></path>
                        <path d="M40.2581023,15.885 L40.2581023,5.0112 L41.1896588,5.0112 L41.1896588,6.201 L41.2204691,6.201 C41.7460554,5.2506 42.5718905,4.7754 43.6979744,4.7754 C44.6764904,4.73952082 45.6063192,5.1999068 46.1664179,5.9976 C46.7682003,6.83716426 47.0809433,7.84727468 47.0581023,8.8776 C47.0712367,9.92660369 46.7544522,10.9535329 46.151919,11.8152 C45.6154723,12.6437574 44.6822142,13.1338215 43.6907249,13.1076 C43.1954485,13.1213398 42.7062487,12.9965999 42.2788913,12.7476 C41.8453721,12.4624472 41.4813172,12.0848886 41.2132196,11.6424 L41.1824094,11.6424 L41.1824094,15.8724 L40.2581023,15.885 Z M43.7015991,12.249 C44.4433609,12.2701287 45.1322251,11.8689949 45.4759062,11.2158 C45.8835394,10.5161305 46.0933086,9.72009355 46.083049,8.9118 C46.093933,8.11594089 45.8838682,7.33248329 45.4759062,6.6474 C45.1244784,6.00449706 44.4377678,5.61367383 43.7015991,5.6376 C42.9346122,5.60946474 42.210447,5.98861703 41.8004264,6.633 C41.346721,7.31832572 41.1129098,8.12417732 41.1298507,8.9442 C41.1129098,9.76422268 41.346721,10.5700743 41.8004264,11.2554 C42.2094568,11.8980784 42.9310862,12.2769867 43.696162,12.2508 L43.7015991,12.249 Z" id="Shape" fill-rule="nonzero"></path>
                        <path d="M49.9905117,15.885 L49.9905117,5.0112 L50.9275053,5.0112 L50.9275053,6.201 L50.9583156,6.201 C51.4839019,5.2506 52.309737,4.7754 53.4358209,4.7754 C54.4143369,4.73952082 55.3441657,5.1999068 55.9042644,5.9976 C56.5060468,6.83716426 56.8187898,7.84727468 56.7959488,8.8776 C56.8090832,9.92660369 56.4922987,10.9535329 55.8897655,11.8152 C55.3533188,12.6437574 54.4200607,13.1338215 53.4285714,13.1076 C52.933295,13.1213398 52.4440951,12.9965999 52.0167377,12.7476 C51.5832186,12.4624472 51.2191637,12.0848886 50.9510661,11.6424 L50.9275053,11.6424 L50.9275053,15.8724 L49.9905117,15.885 Z M53.4340085,12.249 C54.1757703,12.2701287 54.8646345,11.8689949 55.2083156,11.2158 C55.6175326,10.5171927 55.829178,9.72178659 55.8208955,8.9136 C55.8317795,8.11774089 55.6217147,7.33428329 55.2137527,6.6492 C54.8623249,6.00629706 54.1756143,5.61547383 53.4394456,5.6394 C52.6724587,5.61126474 51.9482935,5.99041703 51.5382729,6.6348 C51.0845675,7.32012572 50.8507563,8.12597732 50.8676972,8.946 C50.8507563,9.76602268 51.0845675,10.5718743 51.5382729,11.2572 C51.9470843,11.898057 52.6669445,12.2760756 53.4303838,12.2508 L53.4340085,12.249 Z" id="Shape" fill-rule="nonzero"></path>
                        <path d="M62.880064,13.113 C62.1604422,13.1347845 61.4545846,12.9140041 60.8773987,12.4866 C60.3530045,12.0985008 59.9532311,11.5676478 59.7265458,10.9584 C59.4997617,10.3228686 59.3874913,9.65262385 59.3948827,8.9784 C59.3948827,7.7784 59.6890903,6.7782 60.2775053,5.9778 C60.8659204,5.1774 61.728607,4.7778 62.865565,4.779 C65.232516,4.779 66.4159915,6.2154 66.4159915,9.0882 L66.4159915,9.1674 L60.4025586,9.1674 C60.4230988,10.0866 60.6363539,10.8306 61.0423241,11.3994 C61.4482942,11.9682 62.0977257,12.2526 62.9906183,12.2526 C63.5361586,12.2633217 64.0695892,12.092217 64.5057569,11.7666 C64.9194272,11.4701375 65.201862,11.026484 65.2941365,10.5282 L66.2728145,10.5282 C66.1516937,11.2835198 65.7525632,11.9672898 65.1527719,12.447 C64.5728145,12.891 63.8152452,13.113 62.880064,13.113 Z M60.4351812,8.3646 L65.4046908,8.3646 C65.4046908,7.5186 65.1914357,6.8526 64.7649254,6.3666 C64.3384151,5.8806 63.7101279,5.6406 62.880064,5.6466 C62.1019545,5.6466 61.4978323,5.9106 61.0676972,6.4386 C60.6380167,6.98814711 60.4143783,7.66912207 60.4351812,8.3646 Z" id="Shape" fill-rule="nonzero"></path>
                        <polygon id="Path" points="69.5948827 12.8772 69.5948827 1.5642 70.5010661 1.5642 70.5010661 12.8772"></polygon>
                        <path d="M73.9445629,2.8962 L73.9445629,1.5498 L75.1751599,1.5498 L75.1751599,2.898 L73.9445629,2.8962 Z M74.1819829,12.8772 L74.1819829,5.0112 L75.0881663,5.0112 L75.0881663,12.8772 L74.1819829,12.8772 Z" id="Shape" fill-rule="nonzero"></path>
                        <path d="M78.7817697,12.8772 L78.7817697,5.0112 L79.7133262,5.0112 L79.7133262,6.1704 L79.7441365,6.201 C80.2274343,5.2506 81.0369581,4.7754 82.1727079,4.7754 C83.0668088,4.7754 83.7452381,5.0754 84.2079957,5.6754 C84.6707534,6.2754 84.9021322,7.038 84.9021322,7.9632 L84.9021322,12.8772 L83.9705757,12.8772 L83.9705757,7.8012 C83.9971843,7.22941729 83.8026674,6.66916736 83.4268657,6.2352 C82.9983219,5.81766492 82.4110817,5.60104776 81.8120088,5.63952254 C81.2129359,5.67799733 80.6586767,5.96792602 80.2878465,6.4368 C79.8908478,6.99482368 79.6861405,7.66536938 79.7042644,8.3484 L79.7042644,12.8772 L78.7817697,12.8772 Z" id="Path"></path>
                    </g>
                </g>
            </g>
        </g>
    </g>
</svg>