<svg xmlns="http://www.w3.org/2000/svg" viewBox="0 0 389.14 107.87"><defs><style>.cls-1{fill:#fff;isolation:isolate;}</style></defs><title>ZK_logo</title><g id="Layer_2" data-name="Layer 2"><g id="Layer_2-2" data-name="Layer 2"><polygon class="cls-1" points="129.32 33.98 155.34 33.98 128.25 74.58 128.25 80.06 161.88 80.06 161.88 74.89 134.57 74.89 161.88 33.68 161.88 28.81 129.32 28.81 129.32 33.98"/><polygon class="cls-1" points="178.06 81.06 211.69 80.06 211.69 74.89 183.84 74.89 183.84 57.29 207.58 57.29 207.58 52.12 183.84 52.12 183.84 33.98 211.69 33.98 211.69 28.81 178.06 29.81 178.06 81.06"/><path class="cls-1" d="M247.88,28.81H227.71V80.06h5.78V59.69h14.38c9.89,0,16.74-6.24,16.74-16S257.77,28.81,247.88,28.81Zm-.53,25.71H233.5V34h13.85c6.77,0,11.49,2.58,11.49,9.73S254.12,54.52,247.34,54.52Z"/><polygon class="cls-1" points="316.77 28.81 309.69 28.81 284.43 58.93 284.43 28.81 278.65 28.81 278.65 80.06 284.43 80.06 284.43 66.84 295.85 53.15 312.36 80.06 319.21 80.06 299.73 48.73 316.77 28.81"/><rect class="cls-1" x="332.11" y="28.81" width="5.78" height="51.25"/><polygon class="cls-1" points="352.01 28.81 352.01 33.98 367.69 33.98 367.69 80.06 373.47 80.06 373.47 33.98 389.14 33.98 389.14 28.81 352.01 28.81"/><path class="cls-1" d="M93.5,27.84a1.21,1.21,0,0,0,0-.23,1.25,1.25,0,0,0-.62-1.08L47.25.17A1.25,1.25,0,0,0,46,.17L23.15,13.38a1.25,1.25,0,0,0-.28.23L.84,26.36a1.23,1.23,0,0,0-.21.09A1.25,1.25,0,0,0,0,27.53V80.24a1.25,1.25,0,0,0,.63,1.08l22.63,13a1.25,1.25,0,0,0,.2.16L46.32,107.7a1.86,1.86,0,0,0,1.49-.1l45.1-26.14a1.25,1.25,0,0,0,.62-1.08l0-26.39ZM22.83,67.47V91.24L2.5,79.52V29.72L22.84,41.45V66.53a1.13,1.13,0,0,0,0,.95ZM46.63,2.69l43.13,24.9L69.43,39.35,48.11,27.05a1.24,1.24,0,0,0-.52-.61l-.13-.05L26.54,14.31Zm21.57,62-20-11.54V30l20,11.52ZM25.37,41.43,45.71,29.69V53L25.36,64.79ZM46.83,78.75,26.49,67,46.84,55.26,67.16,67Zm1.61,25.61V80.87L91,56.15l0,23.5Z"/></g></g></svg>